<svg xmlns="http://www.w3.org/2000/svg" width="492" height="75" viewBox="0 0 492 75">
  <defs>
    <style>
      .cls-1 {
        fill: #8d8d8d;
        fill-rule: evenodd;
      }
    </style>
  </defs>
  <path id="HK_EĞİTİM" data-name="HK EĞİTİM" class="cls-1" d="M42.283,73h13.6V51.855H74.537V73h13.6V17.214h-13.6v21.11H55.884V17.214h-13.6V73ZM98.6,73h13.6V52.258L129.041,73h16.592L124.991,45.481l17.761-28.268H127L112.2,38.592V17.214H98.6V73Zm79.733,0.069h38.483V59.5h-24.2V51.89h18.589v-13.6H192.617V30.676h24.2v-13.6H178.33V73.069Zm76.058-56.375h-0.923a31.542,31.542,0,0,0-22.033,8.343,26.936,26.936,0,0,0-8.664,20,26.706,26.706,0,0,0,8.669,20.037,33.441,33.441,0,0,0,44.088-.044c5.681-5.43,9.328-13.029,8.493-23.55L283.933,40.4h-32.3V52.74h15.972a17.245,17.245,0,0,1-14.031,6.9,16.973,16.973,0,0,1-11.757-4.271,13.276,13.276,0,0,1,0-20.6,16.892,16.892,0,0,1,11.755-4.3,16.406,16.406,0,0,1,11.759,4.663l0.906,0.856,10.228-9.715-0.874-.856a32.293,32.293,0,0,0-21.165-8.606ZM253.465,6.139a3.717,3.717,0,0,1-3.844-3.634V1.294h-8.09V2.506c0,6.333,5.532,11.282,11.934,11.282,6.374,0,11.933-4.97,11.933-11.282V1.294h-8.09V2.506A3.79,3.79,0,0,1,253.465,6.139ZM305.815,73V16.971H292.18V73h13.635ZM292.941,8.008a6.074,6.074,0,1,0,12.147,0A6.074,6.074,0,1,0,292.941,8.008ZM314.2,30.745h14.265L328.635,73h15.4l-0.523-42.255h14.227V17.214H314.2V30.745ZM379.763,73V16.971H366.128V73h13.635ZM366.889,8.008a6.074,6.074,0,1,0,12.147,0A6.074,6.074,0,1,0,366.889,8.008Zm23.339,9.067V73h13.635V52.4l16.129,20.55,16.09-20.544V73h13.635V17.075h-2.8L419.991,52.533,393.027,17.075h-2.8Z"/>
</svg>
