<svg xmlns="http://www.w3.org/2000/svg" width="492" height="75" viewBox="0 0 492 75">
  <defs>
    <style>
      .cls-1 {
        fill: #1f3bb3;
        fill-rule: evenodd;
      }
    </style>
  </defs>
  <path id="HK_EĞİTİM" data-name="HK EĞİTİM" class="cls-1" d="M34.008,72.643H48.193V51.218H67.648V72.643H81.833V16.116H67.648V37.506H48.193V16.116H34.008V72.643Zm58.744,0h14.185V51.626l17.568,21.017H141.81L120.28,44.759,138.8,16.116H122.379L106.937,37.778V16.116H92.752V72.643Zm83.173,0.07h40.137V58.967H190.827V51.253h19.388V37.471H190.827V29.757h25.235V15.975H175.925V72.714ZM255.26,15.59H254.3a33.448,33.448,0,0,0-22.979,8.454,27.278,27.278,0,0,0,0,40.569c6.262,5.562,13.993,8.382,22.974,8.382a33.81,33.81,0,0,0,23.009-8.427c5.925-5.5,9.729-13.2,8.858-23.863l-0.089-1.093H252.389v12.5h16.658a19.118,19.118,0,0,1-26.9,2.666,13.213,13.213,0,0,1,0-20.875,17.925,17.925,0,0,1,12.26-4.359,17.385,17.385,0,0,1,12.265,4.725l0.945,0.868L278.289,25.3l-0.911-.868a34.194,34.194,0,0,0-22.075-8.72ZM254.3,4.894a3.828,3.828,0,0,1-4.008-3.682V-0.015h-8.438V1.212c0,6.417,5.77,11.432,12.447,11.432,6.648,0,12.446-5.036,12.446-11.432V-0.015h-8.438V1.212A3.9,3.9,0,0,1,254.3,4.894Zm54.612,67.749V15.87H294.688V72.643h14.221ZM295.482,6.788a6.337,6.337,0,0,0,12.669,0A6.337,6.337,0,0,0,295.482,6.788Zm22.18,23.039H332.54l0.174,42.817h16.062l-0.545-42.817h14.838V16.116H317.662V29.827Zm68.386,42.817V15.87H371.827V72.643h14.221ZM372.621,6.788a6.337,6.337,0,0,0,12.669,0A6.337,6.337,0,0,0,372.621,6.788Zm24.346,9.187V72.643h14.221V51.772L428.011,72.6l16.781-20.817V72.643h14.221V15.975h-2.919L428.009,51.9,399.887,15.975h-2.92Z"/>
</svg>
